<svg xmlns="http://www.w3.org/2000/svg" xmlns:xlink="http://www.w3.org/1999/xlink" width="516" zoomAndPan="magnify" viewBox="0 0 386.88 229.499994" height="306" preserveAspectRatio="xMidYMid meet" version="1.0"><defs><g/><clipPath id="add404a130"><path d="M 75.203125 83.785156 L 143.261719 83.785156 L 143.261719 145.152344 L 75.203125 145.152344 Z M 75.203125 83.785156 " clip-rule="nonzero"/></clipPath></defs><g fill="#333333" fill-opacity="1"><g transform="translate(148.600074, 106.754921)"><g><path d="M 32.125 -24.671875 L 37.609375 -24.671875 L 30.65625 0 L 24.109375 0 L 19.03125 -16.59375 L 13.953125 0 L 7.484375 0 L 0.515625 -24.671875 L 6.015625 -24.671875 L 10.890625 -6.015625 L 16.5 -24.671875 L 21.578125 -24.671875 L 27.21875 -5.875 Z M 32.125 -24.671875 "/></g></g></g><g fill="#333333" fill-opacity="1"><g transform="translate(186.561087, 106.754921)"><g><path d="M 6.296875 -14.859375 C 6.523438 -15.234375 6.789062 -15.585938 7.09375 -15.921875 C 7.394531 -16.253906 7.753906 -16.550781 8.171875 -16.8125 C 8.585938 -17.082031 9.0625 -17.300781 9.59375 -17.46875 C 10.132812 -17.632812 10.738281 -17.71875 11.40625 -17.71875 C 12.195312 -17.71875 13.113281 -17.578125 14.15625 -17.296875 L 13.703125 -13.015625 C 13.453125 -13.054688 13.195312 -13.113281 12.9375 -13.1875 C 12.726562 -13.226562 12.492188 -13.265625 12.234375 -13.296875 C 11.984375 -13.335938 11.753906 -13.359375 11.546875 -13.359375 C 10.804688 -13.359375 10.117188 -13.253906 9.484375 -13.046875 C 8.847656 -12.835938 8.296875 -12.546875 7.828125 -12.171875 C 7.367188 -11.804688 7 -11.363281 6.71875 -10.84375 C 6.4375 -10.320312 6.296875 -9.757812 6.296875 -9.15625 L 6.296875 0 L 1.5 0 L 1.5 -17.265625 L 5.84375 -17.265625 Z M 6.296875 -14.859375 "/></g></g></g><g fill="#333333" fill-opacity="1"><g transform="translate(200.652893, 106.754921)"><g><path d="M 6.78125 0 L 1.984375 0 L 1.984375 -17.265625 L 6.78125 -17.265625 Z M 4.390625 -19.625 C 3.640625 -19.625 3.007812 -19.878906 2.5 -20.390625 C 1.988281 -20.898438 1.734375 -21.523438 1.734375 -22.265625 C 1.734375 -23.015625 1.988281 -23.648438 2.5 -24.171875 C 3.007812 -24.691406 3.640625 -24.953125 4.390625 -24.953125 C 5.128906 -24.953125 5.753906 -24.691406 6.265625 -24.171875 C 6.773438 -23.648438 7.03125 -23.015625 7.03125 -22.265625 C 7.03125 -21.523438 6.773438 -20.898438 6.265625 -20.390625 C 5.753906 -19.878906 5.128906 -19.625 4.390625 -19.625 Z M 4.390625 -19.625 "/></g></g></g><g fill="#333333" fill-opacity="1"><g transform="translate(209.212334, 106.754921)"><g><path d="M 15.109375 -17.265625 L 19.203125 -17.265625 L 19.203125 -5.84375 C 19.203125 -4.519531 19.1875 -3.34375 19.15625 -2.3125 C 19.125 -1.28125 19.035156 -0.351562 18.890625 0.46875 C 18.753906 1.289062 18.53125 2.023438 18.21875 2.671875 C 17.90625 3.328125 17.46875 3.929688 16.90625 4.484375 C 15.882812 5.484375 14.742188 6.164062 13.484375 6.53125 C 12.222656 6.90625 10.894531 7.09375 9.5 7.09375 C 8.3125 7.09375 7.195312 6.953125 6.15625 6.671875 C 5.113281 6.398438 4.175781 6.019531 3.34375 5.53125 L 3.34375 1.046875 C 3.550781 1.367188 3.84375 1.65625 4.21875 1.90625 C 4.601562 2.164062 5.046875 2.390625 5.546875 2.578125 C 6.046875 2.765625 6.578125 2.910156 7.140625 3.015625 C 7.710938 3.117188 8.289062 3.171875 8.875 3.171875 C 9.632812 3.171875 10.351562 3.070312 11.03125 2.875 C 11.707031 2.675781 12.289062 2.351562 12.78125 1.90625 C 13.28125 1.46875 13.675781 0.914062 13.96875 0.25 C 14.257812 -0.40625 14.40625 -1.207031 14.40625 -2.15625 L 14.40625 -2.5 C 13.726562 -1.894531 12.945312 -1.410156 12.0625 -1.046875 C 11.1875 -0.691406 10.226562 -0.515625 9.1875 -0.515625 C 8.03125 -0.515625 6.957031 -0.738281 5.96875 -1.1875 C 4.976562 -1.644531 4.125 -2.257812 3.40625 -3.03125 C 2.6875 -3.8125 2.125 -4.726562 1.71875 -5.78125 C 1.3125 -6.84375 1.109375 -7.96875 1.109375 -9.15625 C 1.109375 -10.332031 1.3125 -11.441406 1.71875 -12.484375 C 2.125 -13.535156 2.6875 -14.445312 3.40625 -15.21875 C 4.125 -16 4.976562 -16.613281 5.96875 -17.0625 C 6.957031 -17.519531 8.03125 -17.75 9.1875 -17.75 C 10.28125 -17.75 11.265625 -17.601562 12.140625 -17.3125 C 13.023438 -17.019531 13.78125 -16.5625 14.40625 -15.9375 Z M 10.15625 -4.796875 C 10.90625 -4.796875 11.546875 -4.929688 12.078125 -5.203125 C 12.609375 -5.472656 13.046875 -5.816406 13.390625 -6.234375 C 13.742188 -6.648438 14 -7.113281 14.15625 -7.625 C 14.320312 -8.132812 14.40625 -8.628906 14.40625 -9.109375 C 14.40625 -9.648438 14.316406 -10.179688 14.140625 -10.703125 C 13.972656 -11.222656 13.710938 -11.6875 13.359375 -12.09375 C 13.015625 -12.5 12.570312 -12.828125 12.03125 -13.078125 C 11.5 -13.335938 10.875 -13.46875 10.15625 -13.46875 C 9.550781 -13.46875 8.992188 -13.347656 8.484375 -13.109375 C 7.972656 -12.878906 7.523438 -12.566406 7.140625 -12.171875 C 6.765625 -11.785156 6.46875 -11.328125 6.25 -10.796875 C 6.03125 -10.273438 5.921875 -9.710938 5.921875 -9.109375 C 5.921875 -8.515625 6.03125 -7.953125 6.25 -7.421875 C 6.46875 -6.898438 6.765625 -6.441406 7.140625 -6.046875 C 7.523438 -5.660156 7.972656 -5.351562 8.484375 -5.125 C 8.992188 -4.90625 9.550781 -4.796875 10.15625 -4.796875 Z M 10.15625 -4.796875 "/></g></g></g><g fill="#333333" fill-opacity="1"><g transform="translate(229.601989, 106.754921)"><g><path d="M 11.171875 -17.75 C 12.304688 -17.75 13.363281 -17.507812 14.34375 -17.03125 C 15.332031 -16.550781 16.1875 -15.898438 16.90625 -15.078125 C 17.625 -14.253906 18.1875 -13.289062 18.59375 -12.1875 C 19 -11.09375 19.203125 -9.921875 19.203125 -8.671875 L 19.203125 0 L 14.515625 0 L 14.515625 -3.171875 C 14.515625 -4.046875 14.519531 -4.953125 14.53125 -5.890625 C 14.539062 -6.835938 14.546875 -7.644531 14.546875 -8.3125 C 14.546875 -8.96875 14.441406 -9.609375 14.234375 -10.234375 C 14.023438 -10.859375 13.734375 -11.40625 13.359375 -11.875 C 12.992188 -12.351562 12.5625 -12.738281 12.0625 -13.03125 C 11.5625 -13.320312 11.03125 -13.46875 10.46875 -13.46875 C 9.9375 -13.46875 9.425781 -13.367188 8.9375 -13.171875 C 8.457031 -12.972656 8.03125 -12.679688 7.65625 -12.296875 C 7.28125 -11.921875 6.984375 -11.441406 6.765625 -10.859375 C 6.546875 -10.273438 6.4375 -9.585938 6.4375 -8.796875 L 6.4375 0 L 1.59375 0 L 1.59375 -25.40625 L 6.4375 -25.40625 L 6.4375 -15.9375 C 7.039062 -16.519531 7.726562 -16.96875 8.5 -17.28125 C 9.28125 -17.59375 10.171875 -17.75 11.171875 -17.75 Z M 11.171875 -17.75 "/></g></g></g><g fill="#333333" fill-opacity="1"><g transform="translate(249.156575, 106.754921)"><g><path d="M 7.9375 -6.1875 C 7.9375 -5.375 8.1875 -4.75 8.6875 -4.3125 C 9.1875 -3.875 9.835938 -3.65625 10.640625 -3.65625 C 11.296875 -3.65625 11.945312 -3.78125 12.59375 -4.03125 L 12.59375 0 C 12.019531 0.1875 11.40625 0.34375 10.75 0.46875 C 10.101562 0.59375 9.453125 0.65625 8.796875 0.65625 C 8.054688 0.65625 7.347656 0.5625 6.671875 0.375 C 6.003906 0.195312 5.40625 -0.113281 4.875 -0.5625 C 4.34375 -1.019531 3.914062 -1.625 3.59375 -2.375 C 3.28125 -3.132812 3.125 -4.070312 3.125 -5.1875 L 3.125 -12.984375 L 0.65625 -12.984375 L 0.65625 -16.21875 L 3.125 -17.265625 L 3.125 -21.125 L 7.9375 -21.125 L 7.9375 -17.265625 L 12.59375 -17.265625 L 12.59375 -12.984375 L 7.9375 -12.984375 Z M 7.9375 -6.1875 "/></g></g></g><g fill="#333333" fill-opacity="1"><g transform="translate(148.600074, 143.159321)"><g><path d="M 23.25 -9.046875 C 22.644531 -8.367188 22.003906 -7.695312 21.328125 -7.03125 C 20.660156 -6.375 19.988281 -5.75 19.3125 -5.15625 L 23.96875 0 L 18.0625 0 L 15.9375 -2.296875 C 14.84375 -1.484375 13.6875 -0.773438 12.46875 -0.171875 C 11.25 0.429688 9.945312 0.734375 8.5625 0.734375 C 7.675781 0.734375 6.816406 0.585938 5.984375 0.296875 C 5.148438 0.00390625 4.398438 -0.414062 3.734375 -0.96875 C 3.078125 -1.53125 2.550781 -2.222656 2.15625 -3.046875 C 1.757812 -3.867188 1.5625 -4.828125 1.5625 -5.921875 C 1.5625 -7.378906 1.976562 -8.734375 2.8125 -9.984375 C 3.65625 -11.234375 4.703125 -12.367188 5.953125 -13.390625 L 1.953125 -17.953125 C 1.953125 -19.085938 2.171875 -20.109375 2.609375 -21.015625 C 3.046875 -21.921875 3.625 -22.6875 4.34375 -23.3125 C 5.0625 -23.9375 5.878906 -24.414062 6.796875 -24.75 C 7.710938 -25.09375 8.632812 -25.265625 9.5625 -25.265625 C 10.445312 -25.265625 11.304688 -25.082031 12.140625 -24.71875 C 12.972656 -24.363281 13.707031 -23.878906 14.34375 -23.265625 C 14.988281 -22.648438 15.507812 -21.941406 15.90625 -21.140625 C 16.300781 -20.335938 16.5 -19.492188 16.5 -18.609375 C 16.5 -17.941406 16.382812 -17.328125 16.15625 -16.765625 C 15.9375 -16.210938 15.644531 -15.695312 15.28125 -15.21875 C 14.925781 -14.75 14.503906 -14.300781 14.015625 -13.875 C 13.535156 -13.457031 13.023438 -13.066406 12.484375 -12.703125 L 16.421875 -8.421875 C 16.679688 -8.609375 16.925781 -8.835938 17.15625 -9.109375 C 17.382812 -9.390625 17.628906 -9.660156 17.890625 -9.921875 L 20.078125 -12.171875 Z M 8.28125 -3.4375 C 8.882812 -3.4375 9.46875 -3.546875 10.03125 -3.765625 C 10.601562 -3.992188 11.109375 -4.25 11.546875 -4.53125 C 12.054688 -4.820312 12.535156 -5.179688 12.984375 -5.609375 C 12.285156 -6.390625 11.585938 -7.140625 10.890625 -7.859375 C 10.191406 -8.578125 9.507812 -9.332031 8.84375 -10.125 C 8.1875 -9.613281 7.59375 -9.054688 7.0625 -8.453125 C 6.832031 -8.203125 6.570312 -7.878906 6.28125 -7.484375 C 5.988281 -7.085938 5.84375 -6.460938 5.84375 -5.609375 C 5.84375 -5.421875 5.894531 -5.195312 6 -4.9375 C 6.101562 -4.6875 6.253906 -4.445312 6.453125 -4.21875 C 6.648438 -4 6.898438 -3.8125 7.203125 -3.65625 C 7.503906 -3.507812 7.863281 -3.4375 8.28125 -3.4375 Z M 9.25 -20.984375 C 8.695312 -20.984375 8.257812 -20.863281 7.9375 -20.625 C 7.613281 -20.394531 7.367188 -20.15625 7.203125 -19.90625 C 7.015625 -19.582031 6.898438 -19.222656 6.859375 -18.828125 L 9.5625 -16 C 10.101562 -16.375 10.53125 -16.707031 10.84375 -17 C 11.15625 -17.289062 11.382812 -17.539062 11.53125 -17.75 C 11.6875 -17.957031 11.785156 -18.144531 11.828125 -18.3125 C 11.878906 -18.488281 11.90625 -18.648438 11.90625 -18.796875 C 11.90625 -19.441406 11.625 -19.96875 11.0625 -20.375 C 10.507812 -20.78125 9.90625 -20.984375 9.25 -20.984375 Z M 9.25 -20.984375 "/></g></g></g><g fill="#333333" fill-opacity="1"><g transform="translate(172.608387, 143.159321)"><g/></g></g><g fill="#333333" fill-opacity="1"><g transform="translate(181.933309, 143.159321)"><g><path d="M 23.25 -24.671875 L 28.21875 -24.671875 L 28.21875 0 L 22.96875 0 L 22.96875 -16.28125 L 17.078125 -8.03125 L 12.875 -8.03125 L 6.921875 -16.046875 L 6.921875 0 L 1.640625 0 L 1.640625 -24.671875 L 6.640625 -24.671875 L 15 -13.296875 Z M 23.25 -24.671875 "/></g></g></g><g fill="#333333" fill-opacity="1"><g transform="translate(211.543576, 143.159321)"><g><path d="M 10.0625 -17.75 C 11.289062 -17.75 12.445312 -17.507812 13.53125 -17.03125 C 14.625 -16.550781 15.578125 -15.898438 16.390625 -15.078125 C 17.203125 -14.253906 17.84375 -13.289062 18.3125 -12.1875 C 18.789062 -11.09375 19.03125 -9.921875 19.03125 -8.671875 C 19.03125 -7.410156 18.789062 -6.226562 18.3125 -5.125 C 17.84375 -4.03125 17.203125 -3.070312 16.390625 -2.25 C 15.578125 -1.425781 14.625 -0.773438 13.53125 -0.296875 C 12.445312 0.179688 11.289062 0.421875 10.0625 0.421875 C 8.800781 0.421875 7.625 0.179688 6.53125 -0.296875 C 5.445312 -0.773438 4.5 -1.425781 3.6875 -2.25 C 2.875 -3.070312 2.226562 -4.03125 1.75 -5.125 C 1.28125 -6.226562 1.046875 -7.410156 1.046875 -8.671875 C 1.046875 -9.921875 1.28125 -11.09375 1.75 -12.1875 C 2.226562 -13.289062 2.875 -14.253906 3.6875 -15.078125 C 4.5 -15.898438 5.445312 -16.550781 6.53125 -17.03125 C 7.625 -17.507812 8.800781 -17.75 10.0625 -17.75 Z M 10.0625 -3.796875 C 10.632812 -3.796875 11.171875 -3.910156 11.671875 -4.140625 C 12.171875 -4.367188 12.613281 -4.6875 13 -5.09375 C 13.382812 -5.5 13.6875 -5.984375 13.90625 -6.546875 C 14.125 -7.117188 14.234375 -7.753906 14.234375 -8.453125 C 14.234375 -9.148438 14.125 -9.800781 13.90625 -10.40625 C 13.6875 -11.007812 13.382812 -11.535156 13 -11.984375 C 12.613281 -12.441406 12.171875 -12.800781 11.671875 -13.0625 C 11.171875 -13.332031 10.632812 -13.46875 10.0625 -13.46875 C 9.476562 -13.46875 8.929688 -13.332031 8.421875 -13.0625 C 7.910156 -12.800781 7.460938 -12.441406 7.078125 -11.984375 C 6.691406 -11.535156 6.390625 -11.007812 6.171875 -10.40625 C 5.953125 -9.800781 5.84375 -9.148438 5.84375 -8.453125 C 5.84375 -7.753906 5.953125 -7.117188 6.171875 -6.546875 C 6.390625 -5.984375 6.691406 -5.5 7.078125 -5.09375 C 7.460938 -4.6875 7.910156 -4.367188 8.421875 -4.140625 C 8.929688 -3.910156 9.476562 -3.796875 10.0625 -3.796875 Z M 10.0625 -3.796875 "/></g></g></g><g fill="#333333" fill-opacity="1"><g transform="translate(231.272137, 143.159321)"><g><path d="M 6.296875 -14.859375 C 6.523438 -15.234375 6.789062 -15.585938 7.09375 -15.921875 C 7.394531 -16.253906 7.753906 -16.550781 8.171875 -16.8125 C 8.585938 -17.082031 9.0625 -17.300781 9.59375 -17.46875 C 10.132812 -17.632812 10.738281 -17.71875 11.40625 -17.71875 C 12.195312 -17.71875 13.113281 -17.578125 14.15625 -17.296875 L 13.703125 -13.015625 C 13.453125 -13.054688 13.195312 -13.113281 12.9375 -13.1875 C 12.726562 -13.226562 12.492188 -13.265625 12.234375 -13.296875 C 11.984375 -13.335938 11.753906 -13.359375 11.546875 -13.359375 C 10.804688 -13.359375 10.117188 -13.253906 9.484375 -13.046875 C 8.847656 -12.835938 8.296875 -12.546875 7.828125 -12.171875 C 7.367188 -11.804688 7 -11.363281 6.71875 -10.84375 C 6.4375 -10.320312 6.296875 -9.757812 6.296875 -9.15625 L 6.296875 0 L 1.5 0 L 1.5 -17.265625 L 5.84375 -17.265625 Z M 6.296875 -14.859375 "/></g></g></g><g fill="#333333" fill-opacity="1"><g transform="translate(245.363946, 143.159321)"><g><path d="M 6.296875 -14.859375 C 6.523438 -15.234375 6.789062 -15.585938 7.09375 -15.921875 C 7.394531 -16.253906 7.753906 -16.550781 8.171875 -16.8125 C 8.585938 -17.082031 9.0625 -17.300781 9.59375 -17.46875 C 10.132812 -17.632812 10.738281 -17.71875 11.40625 -17.71875 C 12.195312 -17.71875 13.113281 -17.578125 14.15625 -17.296875 L 13.703125 -13.015625 C 13.453125 -13.054688 13.195312 -13.113281 12.9375 -13.1875 C 12.726562 -13.226562 12.492188 -13.265625 12.234375 -13.296875 C 11.984375 -13.335938 11.753906 -13.359375 11.546875 -13.359375 C 10.804688 -13.359375 10.117188 -13.253906 9.484375 -13.046875 C 8.847656 -12.835938 8.296875 -12.546875 7.828125 -12.171875 C 7.367188 -11.804688 7 -11.363281 6.71875 -10.84375 C 6.4375 -10.320312 6.296875 -9.757812 6.296875 -9.15625 L 6.296875 0 L 1.5 0 L 1.5 -17.265625 L 5.84375 -17.265625 Z M 6.296875 -14.859375 "/></g></g></g><g fill="#333333" fill-opacity="1"><g transform="translate(259.455754, 143.159321)"><g><path d="M 10.0625 -17.75 C 11.289062 -17.75 12.445312 -17.507812 13.53125 -17.03125 C 14.625 -16.550781 15.578125 -15.898438 16.390625 -15.078125 C 17.203125 -14.253906 17.84375 -13.289062 18.3125 -12.1875 C 18.789062 -11.09375 19.03125 -9.921875 19.03125 -8.671875 C 19.03125 -7.410156 18.789062 -6.226562 18.3125 -5.125 C 17.84375 -4.03125 17.203125 -3.070312 16.390625 -2.25 C 15.578125 -1.425781 14.625 -0.773438 13.53125 -0.296875 C 12.445312 0.179688 11.289062 0.421875 10.0625 0.421875 C 8.800781 0.421875 7.625 0.179688 6.53125 -0.296875 C 5.445312 -0.773438 4.5 -1.425781 3.6875 -2.25 C 2.875 -3.070312 2.226562 -4.03125 1.75 -5.125 C 1.28125 -6.226562 1.046875 -7.410156 1.046875 -8.671875 C 1.046875 -9.921875 1.28125 -11.09375 1.75 -12.1875 C 2.226562 -13.289062 2.875 -14.253906 3.6875 -15.078125 C 4.5 -15.898438 5.445312 -16.550781 6.53125 -17.03125 C 7.625 -17.507812 8.800781 -17.75 10.0625 -17.75 Z M 10.0625 -3.796875 C 10.632812 -3.796875 11.171875 -3.910156 11.671875 -4.140625 C 12.171875 -4.367188 12.613281 -4.6875 13 -5.09375 C 13.382812 -5.5 13.6875 -5.984375 13.90625 -6.546875 C 14.125 -7.117188 14.234375 -7.753906 14.234375 -8.453125 C 14.234375 -9.148438 14.125 -9.800781 13.90625 -10.40625 C 13.6875 -11.007812 13.382812 -11.535156 13 -11.984375 C 12.613281 -12.441406 12.171875 -12.800781 11.671875 -13.0625 C 11.171875 -13.332031 10.632812 -13.46875 10.0625 -13.46875 C 9.476562 -13.46875 8.929688 -13.332031 8.421875 -13.0625 C 7.910156 -12.800781 7.460938 -12.441406 7.078125 -11.984375 C 6.691406 -11.535156 6.390625 -11.007812 6.171875 -10.40625 C 5.953125 -9.800781 5.84375 -9.148438 5.84375 -8.453125 C 5.84375 -7.753906 5.953125 -7.117188 6.171875 -6.546875 C 6.390625 -5.984375 6.691406 -5.5 7.078125 -5.09375 C 7.460938 -4.6875 7.910156 -4.367188 8.421875 -4.140625 C 8.929688 -3.910156 9.476562 -3.796875 10.0625 -3.796875 Z M 10.0625 -3.796875 "/></g></g></g><g fill="#333333" fill-opacity="1"><g transform="translate(279.184315, 143.159321)"><g><path d="M 24.25 -17.265625 L 29.1875 -17.265625 L 24.015625 0 L 17.921875 0 L 15.421875 -8.3125 L 15.171875 -10.78125 L 14.890625 -8.3125 L 12.390625 0 L 6.328125 0 L 1.140625 -17.265625 L 6.09375 -17.265625 L 9.671875 -4.765625 L 13.15625 -17.265625 L 17.15625 -17.265625 L 20.640625 -4.703125 Z M 24.25 -17.265625 "/></g></g></g><g clip-path="url(#add404a130)"><path fill="#232222" d="M 140.296875 137.414062 C 132.238281 137.105469 125.273438 138.847656 118.785156 140.472656 C 111.503906 142.292969 104.84375 143.960938 98.125 142.25 C 94.941406 141.4375 91.648438 139.902344 88.628906 138.492188 C 84.046875 136.359375 80.039062 134.492188 77.394531 135.597656 C 77.25 134.269531 78.628906 133.777344 79.71875 133.65625 C 79.734375 130.769531 81.476562 130.785156 84.398438 130.941406 C 88.8125 131.175781 94.949219 131.5 100.542969 124.242188 L 111.910156 109.527344 L 116.5625 103.507812 L 122.546875 99.667969 L 141.011719 87.820312 C 140.800781 92.640625 139.445312 99.097656 128.808594 105.683594 L 110.765625 116.859375 L 111.914062 118.714844 L 129.957031 107.539062 C 131.828125 106.378906 133.433594 105.21875 134.816406 104.070312 C 134.746094 105.617188 134.457031 107.371094 133.703125 109.164062 C 132.546875 111.914062 130.285156 114.777344 126.019531 117.171875 L 105.039062 128.945312 L 106.105469 130.851562 L 127.089844 119.078125 C 127.199219 119.015625 127.308594 118.953125 127.417969 118.890625 C 126.769531 121.988281 125.195312 125.503906 118.921875 128.953125 L 102.015625 138.257812 L 103.070312 140.171875 L 107.347656 137.816406 L 140.40625 133.292969 L 140.117188 131.128906 L 112.671875 134.886719 L 119.972656 130.867188 C 128.570312 126.136719 129.324219 121.246094 129.917969 117.242188 C 132.914062 114.980469 134.691406 112.460938 135.722656 110.011719 C 136.960938 107.066406 137.105469 104.246094 136.988281 102.085938 C 143.125 95.914062 143.191406 90.132812 143.234375 85.933594 L 143.238281 85.804688 L 143.261719 83.785156 L 141.554688 84.878906 L 121.367188 97.828125 L 115.226562 101.769531 L 114.949219 102.023438 L 110.179688 108.195312 L 98.8125 122.90625 C 93.917969 129.261719 88.445312 128.972656 84.507812 128.761719 C 80.914062 128.570312 78.332031 128.433594 77.710938 131.945312 C 77.074219 132.203125 76.546875 132.582031 76.144531 133.027344 C 75.753906 133.464844 75.476562 133.96875 75.324219 134.496094 C 74.808594 136.304688 75.714844 137.703125 77.0625 138.566406 C 77.855469 137.320312 78.828125 137.15625 80.792969 137.648438 C 82.648438 138.109375 85.066406 139.238281 87.703125 140.46875 C 90.832031 141.925781 94.242188 143.515625 97.585938 144.367188 C 104.835938 146.214844 111.753906 144.484375 119.316406 142.589844 C 125.664062 141 132.480469 139.296875 140.21875 139.59375 L 140.296875 137.414062 " fill-opacity="1" fill-rule="nonzero"/></g></svg>