<?xml version="1.0" encoding="UTF-8"?><svg id="Layer_2" xmlns="http://www.w3.org/2000/svg" xmlns:xlink="http://www.w3.org/1999/xlink" viewBox="0 0 85.98 78"><defs><clipPath id="clippath"><rect width="85.98" height="78" style="fill:none;"/></clipPath></defs><g id="Layer_2-2"><g id="Layer_1-2"><g style="clip-path:url(#clippath);"><path d="M3.74,68.17c10.17-.39,18.97,1.82,27.17,3.89,9.19,2.32,17.6,4.44,26.09,2.26,4.02-1.03,8.18-2.98,11.99-4.77,5.79-2.71,10.84-5.09,14.19-3.68,.18-1.69-1.56-2.31-2.94-2.47-.02-3.67-2.22-3.65-5.91-3.45-5.58,.3-13.33,.71-20.39-8.52l-14.35-18.7-5.88-7.66-7.56-4.88L2.84,5.14c.26,6.12,1.97,14.33,15.41,22.7l22.79,14.21-1.45,2.36-22.79-14.21c-2.36-1.47-4.4-2.95-6.14-4.41,.09,1.96,.45,4.2,1.41,6.47,1.46,3.49,4.31,7.14,9.7,10.18l26.5,14.96-1.35,2.42-26.5-14.96c-.14-.08-.28-.16-.42-.24,.82,3.94,2.81,8.41,10.73,12.8l21.34,11.82-1.33,2.43-5.4-2.99L3.6,62.93l.36-2.74,34.66,4.77-9.22-5.1c-10.86-6.02-11.81-12.23-12.56-17.32-3.79-2.87-6.03-6.07-7.33-9.19-1.56-3.74-1.75-7.33-1.6-10.07C.17,15.42,.09,8.07,.03,2.73v-.16l-.03-2.57L2.15,1.39,27.65,17.85l7.76,5.01,.34,.32,6.03,7.84,14.35,18.7c6.18,8.07,13.09,7.71,18.07,7.44,4.54-.24,7.8-.42,8.58,4.04,.8,.33,1.47,.81,1.97,1.38,.5,.55,.85,1.19,1.04,1.86,.65,2.3-.49,4.08-2.19,5.17-1-1.58-2.23-1.79-4.71-1.17-2.34,.59-5.39,2.02-8.72,3.58-3.95,1.85-8.26,3.88-12.48,4.96-9.15,2.35-17.89,.15-27.44-2.26-8.02-2.02-16.63-4.19-26.4-3.81l-.1-2.77" style="fill:#fff;"/></g></g></g></svg>