<?xml version="1.0" encoding="UTF-8"?><svg id="Layer_2" xmlns="http://www.w3.org/2000/svg" xmlns:xlink="http://www.w3.org/1999/xlink" viewBox="0 0 262.24 78"><defs><clipPath id="clippath"><rect width="85.98" height="78" style="fill:none;"/></clipPath></defs><g id="Layer_1-2"><path d="M133.26,6.17h6.17l-7.81,27.71h-7.35l-5.71-18.65-5.71,18.65h-7.27l-7.81-27.71h6.19l5.46,20.94,6.29-20.94h5.71l6.33,21.1,5.52-21.1Z" style="fill:#333;"/><path d="M146.9,17.19c.25-.42,.54-.81,.88-1.19,.34-.38,.76-.71,1.23-1.02,.47-.3,1.01-.55,1.6-.73,.59-.18,1.27-.27,2.02-.27,.89,0,1.92,.16,3.1,.48l-.52,4.79c-.28-.04-.56-.1-.85-.19-.24-.05-.5-.09-.79-.13-.28-.04-.54-.06-.77-.06-.83,0-1.61,.12-2.33,.35-.71,.22-1.33,.54-1.85,.96-.52,.42-.93,.93-1.25,1.52-.31,.58-.46,1.22-.46,1.9v10.27h-5.4V14.5h4.88l.52,2.69Z" style="fill:#333;"/><path d="M163.27,33.87h-5.4V14.5h5.4v19.38Zm-2.71-22.04c-.83,0-1.54-.28-2.1-.85-.57-.58-.85-1.29-.85-2.13s.28-1.54,.85-2.13c.57-.58,1.27-.88,2.1-.88s1.53,.29,2.1,.88c.58,.58,.88,1.29,.88,2.13s-.29,1.54-.88,2.13c-.57,.57-1.27,.85-2.1,.85Z" style="fill:#333;"/><path d="M182.22,14.5h4.63v12.81c0,1.49-.02,2.81-.06,3.98-.04,1.16-.15,2.19-.31,3.1-.16,.93-.41,1.76-.75,2.48-.35,.73-.83,1.42-1.46,2.04-1.16,1.13-2.44,1.9-3.85,2.31s-2.91,.63-4.48,.63c-1.33,0-2.58-.16-3.75-.48-1.17-.31-2.22-.74-3.17-1.29v-5.04c.23,.38,.57,.7,1,.98,.43,.29,.92,.54,1.48,.75,.57,.21,1.17,.36,1.79,.48,.64,.13,1.28,.19,1.94,.19,.86,0,1.67-.11,2.42-.33,.76-.22,1.42-.58,1.98-1.08,.57-.49,1.01-1.1,1.33-1.85,.33-.73,.5-1.64,.5-2.71v-.4c-.77,.68-1.64,1.22-2.63,1.63-.99,.41-2.07,.6-3.25,.6-1.31,0-2.52-.25-3.63-.75-1.1-.51-2.05-1.21-2.85-2.08-.81-.88-1.44-1.9-1.9-3.08-.46-1.19-.69-2.45-.69-3.77s.23-2.58,.69-3.75c.46-1.18,1.09-2.21,1.9-3.08,.8-.88,1.76-1.56,2.85-2.06,1.11-.51,2.32-.77,3.63-.77,1.22,0,2.32,.17,3.31,.5,1,.32,1.85,.83,2.56,1.54l.77-1.48Zm-5.54,13.98c.83,0,1.55-.15,2.15-.44,.59-.3,1.09-.69,1.48-1.17,.39-.47,.67-.99,.85-1.56,.19-.57,.29-1.13,.29-1.69,0-.59-.1-1.19-.29-1.77-.2-.58-.49-1.1-.9-1.56-.39-.46-.89-.82-1.48-1.1-.6-.29-1.3-.44-2.1-.44-.68,0-1.31,.14-1.9,.4-.57,.27-1.07,.62-1.5,1.06-.42,.43-.75,.95-1,1.54-.25,.58-.38,1.21-.38,1.88s.13,1.32,.38,1.92c.25,.58,.58,1.1,1,1.54,.43,.43,.93,.77,1.5,1.02,.58,.25,1.21,.38,1.9,.38Z" style="fill:#333;"/><path d="M200.71,13.94c1.28,0,2.47,.27,3.58,.81,1.11,.53,2.07,1.26,2.88,2.19,.8,.92,1.44,2,1.9,3.25,.46,1.24,.69,2.56,.69,3.96v9.73h-5.29v-3.56c0-.98,0-2.01,.02-3.06,.01-1.05,.02-1.96,.02-2.71s-.12-1.45-.35-2.15c-.24-.71-.56-1.32-.98-1.85-.42-.54-.91-.97-1.46-1.29-.56-.33-1.15-.5-1.77-.5s-1.18,.11-1.73,.33c-.54,.22-1.02,.55-1.44,.98-.42,.43-.75,.97-1,1.63-.25,.66-.38,1.42-.38,2.29v9.9h-5.44V5.35h5.44V15.98c.68-.65,1.46-1.15,2.33-1.5,.88-.36,1.86-.54,2.98-.54Z" style="fill:#333;"/><path d="M219.05,26.92c0,.92,.28,1.63,.83,2.13,.55,.49,1.29,.73,2.21,.73,.73,0,1.46-.15,2.19-.44v4.54c-.66,.21-1.35,.38-2.08,.52-.72,.15-1.45,.23-2.17,.23-.83,0-1.64-.1-2.4-.31-.75-.21-1.43-.57-2.04-1.08-.6-.51-1.07-1.19-1.42-2.02-.35-.84-.52-1.9-.52-3.17v-8.75h-2.77v-3.63l2.77-1.17v-4.35h5.4v4.35h5.23v4.79h-5.23v7.63Z" style="fill:#333;"/><path d="M261.41,23.71c-.68,.77-1.4,1.52-2.15,2.27-.75,.74-1.51,1.44-2.27,2.1l5.25,5.79h-6.65l-2.4-2.58c-1.22,.92-2.52,1.72-3.9,2.4-1.36,.67-2.83,1-4.4,1-.99,0-1.95-.17-2.9-.5-.93-.32-1.77-.79-2.52-1.42-.74-.63-1.33-1.4-1.77-2.31-.45-.93-.67-2.01-.67-3.23,0-1.64,.46-3.16,1.4-4.56,.94-1.42,2.13-2.69,3.54-3.83l-4.5-5.13c0-1.28,.24-2.42,.73-3.44,.5-1.01,1.15-1.88,1.96-2.58,.82-.71,1.74-1.25,2.77-1.63,1.03-.38,2.06-.56,3.1-.56,.98,0,1.94,.2,2.88,.6,.94,.41,1.77,.95,2.48,1.65,.72,.7,1.3,1.49,1.75,2.4,.44,.89,.67,1.83,.67,2.81,0,.77-.13,1.46-.38,2.08-.24,.63-.56,1.21-.98,1.75-.41,.53-.88,1.03-1.42,1.5-.54,.46-1.12,.9-1.73,1.31l4.42,4.81c.29-.21,.57-.46,.83-.77,.26-.32,.53-.63,.81-.92l2.46-2.54,3.56,3.52Zm-16.81,6.29c.68,0,1.34-.11,1.98-.35,.64-.25,1.21-.53,1.71-.85,.57-.33,1.1-.73,1.6-1.21-.79-.89-1.58-1.73-2.35-2.54-.78-.8-1.54-1.65-2.29-2.54-.74,.57-1.41,1.2-2,1.88-.27,.29-.56,.66-.9,1.1-.32,.45-.48,1.15-.48,2.1,0,.21,.05,.46,.17,.75,.13,.28,.3,.54,.52,.79,.22,.25,.5,.46,.83,.63,.34,.17,.75,.25,1.21,.25Zm1.1-19.69c-.63,0-1.13,.14-1.5,.4-.36,.25-.64,.52-.81,.81-.21,.36-.33,.77-.38,1.21l3.04,3.17c.59-.42,1.07-.78,1.42-1.1,.36-.33,.63-.61,.79-.85,.17-.23,.28-.45,.33-.65,.05-.19,.08-.36,.08-.52,0-.73-.31-1.32-.94-1.77-.63-.46-1.31-.69-2.04-.69Z" style="fill:#333;"/><path d="M123.28,46.51h5.58v27.71h-5.9v-18.29l-6.6,9.27h-4.73l-6.69-9v18.02h-5.94v-27.71h5.63l9.4,12.77,9.25-12.77Z" style="fill:#333;"/><path d="M141.73,54.28c1.39,0,2.69,.27,3.92,.81,1.22,.53,2.28,1.26,3.19,2.19,.92,.92,1.64,2,2.17,3.25,.54,1.24,.81,2.56,.81,3.96s-.27,2.72-.81,3.96c-.53,1.24-1.25,2.32-2.17,3.25-.91,.93-1.97,1.67-3.19,2.21-1.22,.53-2.53,.79-3.92,.79s-2.72-.27-3.94-.79c-1.22-.54-2.29-1.28-3.21-2.21-.92-.93-1.65-2.01-2.19-3.25-.53-1.23-.79-2.55-.79-3.96s.26-2.72,.79-3.96c.54-1.25,1.27-2.33,2.19-3.25,.92-.93,1.98-1.66,3.21-2.19,1.22-.54,2.53-.81,3.94-.81Zm0,15.69c.65,0,1.26-.13,1.81-.4,.57-.26,1.07-.63,1.5-1.08,.43-.46,.76-1.01,1-1.65,.25-.64,.38-1.34,.38-2.13s-.13-1.51-.38-2.19c-.24-.68-.57-1.27-1-1.77-.43-.51-.93-.92-1.5-1.21-.56-.3-1.16-.46-1.81-.46s-1.27,.16-1.83,.46c-.57,.29-1.07,.7-1.5,1.21-.43,.5-.77,1.09-1.02,1.77-.25,.68-.38,1.41-.38,2.19s.13,1.49,.38,2.13c.25,.64,.59,1.19,1.02,1.65,.43,.46,.93,.82,1.5,1.08,.57,.27,1.18,.4,1.83,.4Z" style="fill:#333;"/><path d="M159.68,57.53c.25-.42,.54-.81,.88-1.19,.34-.38,.76-.71,1.23-1.02,.47-.3,1.01-.55,1.6-.73,.59-.18,1.27-.27,2.02-.27,.89,0,1.92,.16,3.1,.48l-.52,4.79c-.28-.04-.56-.1-.85-.19-.24-.05-.5-.09-.79-.13-.28-.04-.54-.06-.77-.06-.83,0-1.61,.12-2.33,.35-.71,.22-1.33,.54-1.85,.96-.52,.42-.93,.93-1.25,1.52-.31,.58-.46,1.22-.46,1.9v10.27h-5.4v-19.38h4.88l.52,2.69Z" style="fill:#333;"/><path d="M175.51,57.53c.25-.42,.54-.81,.88-1.19,.34-.38,.76-.71,1.23-1.02,.47-.3,1.01-.55,1.6-.73,.59-.18,1.27-.27,2.02-.27,.89,0,1.92,.16,3.1,.48l-.52,4.79c-.28-.04-.56-.1-.85-.19-.24-.05-.5-.09-.79-.13-.28-.04-.54-.06-.77-.06-.83,0-1.61,.12-2.33,.35-.71,.22-1.33,.54-1.85,.96-.52,.42-.93,.93-1.25,1.52-.31,.58-.46,1.22-.46,1.9v10.27h-5.4v-19.38h4.88l.52,2.69Z" style="fill:#333;"/><path d="M195.55,54.28c1.39,0,2.69,.27,3.92,.81,1.22,.53,2.28,1.26,3.19,2.19,.92,.92,1.64,2,2.17,3.25,.54,1.24,.81,2.56,.81,3.96s-.27,2.72-.81,3.96c-.53,1.24-1.25,2.32-2.17,3.25-.91,.93-1.97,1.67-3.19,2.21-1.22,.53-2.53,.79-3.92,.79s-2.72-.27-3.94-.79c-1.22-.54-2.29-1.28-3.21-2.21-.92-.93-1.65-2.01-2.19-3.25-.53-1.23-.79-2.55-.79-3.96s.26-2.72,.79-3.96c.54-1.25,1.27-2.33,2.19-3.25,.92-.93,1.98-1.66,3.21-2.19,1.22-.54,2.53-.81,3.94-.81Zm0,15.69c.65,0,1.26-.13,1.81-.4,.57-.26,1.07-.63,1.5-1.08,.43-.46,.76-1.01,1-1.65,.25-.64,.38-1.34,.38-2.13s-.13-1.51-.38-2.19c-.24-.68-.57-1.27-1-1.77-.43-.51-.93-.92-1.5-1.21-.56-.3-1.16-.46-1.81-.46s-1.27,.16-1.83,.46c-.57,.29-1.07,.7-1.5,1.21-.43,.5-.77,1.09-1.02,1.77-.25,.68-.38,1.41-.38,2.19s.13,1.49,.38,2.13c.25,.64,.59,1.19,1.02,1.65,.43,.46,.93,.82,1.5,1.08,.57,.27,1.18,.4,1.83,.4Z" style="fill:#333;"/><path d="M233.67,54.85h5.54l-5.83,19.38h-6.83l-2.81-9.33-.27-2.79-.31,2.79-2.81,9.33h-6.81l-5.81-19.38h5.54l4.04,14.02,3.9-14.02h4.5l3.9,14.1,4.08-14.1Z" style="fill:#333;"/><g style="clip-path:url(#clippath);"><path d="M3.74,68.17c10.17-.39,18.97,1.82,27.17,3.89,9.19,2.32,17.6,4.44,26.09,2.26,4.02-1.03,8.18-2.98,11.99-4.77,5.79-2.71,10.84-5.09,14.19-3.68,.18-1.69-1.56-2.31-2.94-2.47-.02-3.67-2.22-3.65-5.91-3.45-5.58,.3-13.33,.71-20.39-8.52l-14.35-18.7-5.88-7.66-7.56-4.88L2.84,5.14c.26,6.12,1.97,14.33,15.41,22.7l22.79,14.21-1.45,2.36-22.79-14.21c-2.36-1.47-4.4-2.95-6.14-4.41,.09,1.96,.45,4.2,1.41,6.47,1.46,3.49,4.31,7.14,9.7,10.18l26.5,14.96-1.35,2.42-26.5-14.96c-.14-.08-.28-.16-.42-.24,.82,3.94,2.81,8.41,10.73,12.8l21.34,11.82-1.33,2.43-5.4-2.99L3.6,62.93l.36-2.74,34.66,4.77-9.22-5.1c-10.86-6.02-11.81-12.23-12.56-17.32-3.79-2.87-6.03-6.07-7.33-9.19-1.56-3.74-1.75-7.33-1.6-10.07C.17,15.42,.09,8.07,.03,2.73v-.16l-.03-2.57L2.15,1.39,27.65,17.85l7.76,5.01,.34,.32,6.03,7.84,14.35,18.7c6.18,8.07,13.09,7.71,18.07,7.44,4.54-.24,7.8-.42,8.58,4.04,.8,.33,1.47,.81,1.97,1.38,.5,.55,.85,1.19,1.04,1.86,.65,2.3-.49,4.08-2.19,5.17-1-1.58-2.23-1.79-4.71-1.17-2.34,.59-5.39,2.02-8.72,3.58-3.95,1.85-8.26,3.88-12.48,4.96-9.15,2.35-17.89,.15-27.44-2.26-8.02-2.02-16.63-4.19-26.4-3.81l-.1-2.77" style="fill:#232222;"/></g></g></svg>