<?xml version="1.0" encoding="UTF-8"?><svg id="Layer_2" xmlns="http://www.w3.org/2000/svg" xmlns:xlink="http://www.w3.org/1999/xlink" viewBox="0 0 310.88 85.05"><defs><clipPath id="clippath"><rect y="3.25" width="90.7" height="81.8" style="fill:none;"/></clipPath></defs><g id="Layer_1-2"><path d="M140.6,1h7.3l-9.3,32.9h-8.7l-6.7-22.1-6.8,22.1h-8.6L98.5,1h7.3l6.5,24.9L119.8,1h6.8l7.5,25.1,6.5-25.1Z" style="fill:#333;"/><path d="M156.86,14.1c.3-.5,.7-1,1.1-1.4s.9-.8,1.4-1.2c.6-.4,1.2-.7,1.9-.9,.7-.2,1.5-.3,2.4-.3,1.1,0,2.3,.2,3.7,.6l-.6,5.7c-.3-.1-.7-.1-1-.2s-.6-.1-.9-.1c-.3-.1-.6-.1-.9-.1-1,0-1.9,.1-2.8,.4-.8,.3-1.6,.7-2.2,1.2s-1.1,1.1-1.5,1.8c-.4,.7-.6,1.4-.6,2.2v12.2h-6.4V11h5.8l.6,3.1Z" style="fill:#333;"/><path d="M176.25,33.9h-6.4V10.9h6.4v23Zm-3.2-26.2c-1,0-1.8-.3-2.5-1s-1-1.5-1-2.5,.3-1.8,1-2.5c.7-.7,1.5-1,2.5-1s1.8,.3,2.5,1c.7,.7,1,1.5,1,2.5s-.3,1.8-1,2.5c-.7,.7-1.5,1-2.5,1Z" style="fill:#333;"/><path d="M198.81,10.9h5.5v15.2c0,1.8,0,3.3-.1,4.7,0,1.4-.2,2.6-.4,3.7-.2,1.1-.5,2.1-.9,2.9-.4,.9-1,1.7-1.8,2.4-1.4,1.3-2.9,2.2-4.6,2.7s-3.5,.8-5.3,.8c-1.6,0-3.1-.2-4.5-.6-1.4-.4-2.6-.9-3.8-1.5v-6c.3,.4,.7,.8,1.2,1.1s1.1,.6,1.8,.9c.7,.2,1.4,.4,2.1,.6,.8,.1,1.5,.2,2.3,.2,1,0,2-.1,2.9-.4,.9-.3,1.7-.7,2.3-1.3,.7-.6,1.2-1.3,1.6-2.2,.5-.8,.7-1.8,.7-3.1v-.5c-.9,.8-1.9,1.5-3.1,1.9-1.2,.5-2.4,.7-3.8,.7-1.5,0-3-.3-4.3-.9-1.3-.6-2.5-1.4-3.4-2.5-1-1-1.7-2.3-2.2-3.7-.5-1.4-.8-2.9-.8-4.5s.3-3,.8-4.4,1.3-2.6,2.2-3.6c1-1,2.1-1.9,3.4-2.5s2.8-.9,4.3-.9,2.8,.2,3.9,.6c1.2,.4,2.2,1,3,1.8l1-1.6Zm-6.6,16.6c1,0,1.9-.2,2.6-.5,.7-.4,1.3-.8,1.8-1.4s.8-1.2,1-1.9c.2-.7,.3-1.3,.3-2s-.1-1.4-.4-2.1c-.2-.7-.6-1.3-1-1.9-.5-.5-1.1-1-1.8-1.3-.7-.3-1.5-.5-2.5-.5-.8,0-1.6,.2-2.2,.5-.7,.3-1.3,.7-1.8,1.2s-.9,1.1-1.2,1.8c-.3,.7-.4,1.4-.4,2.2s.1,1.5,.4,2.2,.7,1.3,1.2,1.8,1.1,.9,1.8,1.2c.6,.5,1.4,.7,2.2,.7Z" style="fill:#333;"/><path d="M220.7,10.2c1.5,0,2.9,.3,4.2,1,1.3,.6,2.5,1.5,3.4,2.6,1,1.1,1.7,2.4,2.2,3.9s.8,3,.8,4.7v11.6h-6.1v-11c0-.9-.1-1.7-.4-2.6-.3-.8-.7-1.6-1.2-2.2s-1.1-1.2-1.7-1.5c-.7-.4-1.4-.6-2.1-.6s-1.4,.1-2,.4-1.2,.7-1.7,1.2-.9,1.1-1.2,1.9c-.3,.8-.4,1.7-.4,2.8v11.7h-6.5V0h6.5V12.6c.8-.8,1.7-1.4,2.8-1.8,.9-.4,2.1-.6,3.4-.6Z" style="fill:#333;"/><path d="M242.46,25.6c0,1.1,.3,1.9,1,2.5s1.5,.9,2.6,.9c.9,0,1.7-.2,2.6-.5v5.4c-.8,.2-1.6,.5-2.5,.6-.9,.2-1.7,.2-2.6,.2-1,0-1.9-.1-2.8-.4-.9-.2-1.7-.7-2.4-1.2-.7-.6-1.3-1.4-1.7-2.4-.4-1-.6-2.3-.6-3.8v-10.3h-3.3v-4.3l3.3-1.4V5.7h6.4v5.1h6.2v5.7h-6.2s0,9.1,0,9.1Z" style="fill:#333;"/><path d="M128.8,70.4c-.8,.9-1.7,1.8-2.6,2.7s-1.8,1.7-2.7,2.5l6.2,6.9h-7.9l-2.8-3.1c-1.5,1.1-3,2-4.6,2.8s-3.4,1.2-5.2,1.2c-1.2,0-2.3-.2-3.4-.6-1.1-.4-2.1-.9-3-1.7s-1.6-1.7-2.1-2.8-.8-2.4-.8-3.8c0-1.9,.6-3.8,1.7-5.4,1.1-1.7,2.5-3.2,4.2-4.5l-5.3-6.1c0-1.5,.3-2.9,.9-4.1,.6-1.2,1.4-2.2,2.3-3.1,1-.8,2-1.5,3.3-1.9,1.2-.5,2.4-.7,3.7-.7,1.2,0,2.3,.2,3.4,.7s2.1,1.1,2.9,1.9c.9,.8,1.6,1.8,2.1,2.8,.5,1.1,.8,2.2,.8,3.4,0,.9-.2,1.7-.5,2.5-.3,.7-.7,1.4-1.2,2.1-.5,.6-1,1.2-1.7,1.8-.6,.6-1.3,1.1-2,1.6l5.2,5.7c.3-.2,.7-.6,1-.9,.3-.4,.6-.7,1-1.1l2.9-3,4.2,4.2Zm-19.9,7.4c.8,0,1.6-.1,2.3-.4,.8-.3,1.4-.6,2-1,.7-.4,1.3-.9,1.9-1.4-.9-1-1.9-2-2.8-3s-1.8-2-2.7-3c-.9,.7-1.7,1.4-2.4,2.2-.3,.3-.7,.8-1,1.3-.4,.5-.6,1.4-.6,2.5,0,.2,.1,.6,.2,.9,.1,.3,.3,.7,.6,1s.6,.5,1,.8c.4,0,.9,.1,1.5,.1Zm1.2-23.4c-.7,0-1.3,.2-1.8,.5-.4,.3-.8,.6-1,1s-.4,.9-.5,1.4l3.6,3.8c.7-.5,1.3-.9,1.7-1.3s.7-.7,.9-1c.2-.3,.3-.5,.4-.8,.1-.2,.1-.4,.1-.6,0-.9-.4-1.6-1.1-2.1-.6-.6-1.4-.9-2.3-.9Z" style="fill:#333;"/><path d="M173.23,49.5h6.6v32.9h-7v-21.7l-7.9,11h-5.6l-7.8-10.7v21.4h-7V49.5h6.7l11,15.2,11-15.2Z" style="fill:#333;"/><path d="M195.14,58.8c1.6,0,3.2,.3,4.6,1,1.5,.6,2.7,1.5,3.8,2.6,1.1,1.1,1.9,2.4,2.6,3.9,.6,1.5,1,3,1,4.7s-.3,3.3-1,4.7c-.6,1.5-1.5,2.7-2.6,3.8s-2.4,2-3.8,2.6-3,1-4.6,1c-1.7,0-3.3-.3-4.7-1-1.4-.6-2.7-1.5-3.8-2.6-1.1-1.1-1.9-2.4-2.6-3.8-.6-1.5-.9-3-.9-4.7s.3-3.2,.9-4.7,1.5-2.8,2.6-3.9,2.3-2,3.8-2.6c1.5-.7,3-1,4.7-1Zm0,18.6c.8,0,1.5-.2,2.1-.5,.7-.3,1.3-.7,1.8-1.3,.5-.5,.9-1.2,1.2-1.9,.3-.8,.4-1.6,.4-2.5s-.1-1.8-.4-2.6-.7-1.5-1.2-2.1-1.1-1.1-1.8-1.4c-.7-.4-1.4-.5-2.1-.5-.8,0-1.5,.2-2.2,.5s-1.3,.8-1.8,1.4-.9,1.3-1.2,2.1c-.3,.8-.4,1.7-.4,2.6s.1,1.8,.4,2.5c.3,.8,.7,1.4,1.2,1.9s1.1,1,1.8,1.3c.7,.3,1.4,.5,2.2,.5Z" style="fill:#333;"/><path d="M216.47,62.6c.3-.5,.7-1,1.1-1.4s.9-.8,1.4-1.2c.6-.4,1.2-.7,1.9-.9,.7-.2,1.5-.3,2.4-.3,1.1,0,2.3,.2,3.7,.6l-.6,5.7c-.3-.1-.7-.1-1-.2s-.6-.1-.9-.1c-.3-.1-.6-.1-.9-.1-1,0-1.9,.1-2.8,.4-.8,.3-1.6,.7-2.2,1.2-.6,.5-1.1,1.1-1.5,1.8s-.6,1.4-.6,2.2v12.2h-6.4v-23h5.8l.6,3.1Z" style="fill:#333;"/><path d="M235.26,62.6c.3-.5,.7-1,1.1-1.4s.9-.8,1.4-1.2c.6-.4,1.2-.7,1.9-.9,.7-.2,1.5-.3,2.4-.3,1.1,0,2.3,.2,3.7,.6l-.6,5.7c-.3-.1-.7-.1-1-.2s-.6-.1-.9-.1c-.3-.1-.6-.1-.9-.1-1,0-1.9,.1-2.8,.4-.8,.3-1.6,.7-2.2,1.2-.6,.5-1.1,1.1-1.5,1.8s-.6,1.4-.6,2.2v12.2h-6.4v-23h5.8l.6,3.1Z" style="fill:#333;"/><path d="M259.06,58.8c1.6,0,3.2,.3,4.6,1,1.5,.6,2.7,1.5,3.8,2.6,1.1,1.1,1.9,2.4,2.6,3.9,.6,1.5,1,3,1,4.7s-.3,3.3-1,4.7c-.6,1.5-1.5,2.7-2.6,3.8s-2.4,2-3.8,2.6-3,1-4.6,1c-1.7,0-3.2-.3-4.7-1-1.4-.6-2.7-1.5-3.8-2.6-1.1-1.1-1.9-2.4-2.6-3.8-.6-1.5-.9-3-.9-4.7s.3-3.2,.9-4.7,1.5-2.8,2.6-3.9,2.3-2,3.8-2.6c1.4-.7,3-1,4.7-1Zm0,18.6c.8,0,1.5-.2,2.1-.5,.7-.3,1.3-.7,1.8-1.3,.5-.5,.9-1.2,1.2-1.9,.3-.8,.4-1.6,.4-2.5s-.1-1.8-.4-2.6-.7-1.5-1.2-2.1-1.1-1.1-1.8-1.4c-.7-.4-1.4-.5-2.1-.5-.8,0-1.5,.2-2.2,.5s-1.3,.8-1.8,1.4-.9,1.3-1.2,2.1c-.3,.8-.4,1.7-.4,2.6s.1,1.8,.4,2.5c.3,.8,.7,1.4,1.2,1.9s1.1,1,1.8,1.3c.7,.3,1.4,.5,2.2,.5Z" style="fill:#333;"/><path d="M304.28,59.4h6.6l-6.9,23h-8.2l-3.3-11.1-.3-3.3-.4,3.3-3.3,11.1h-8.1l-6.9-23h6.6l4.8,16.7,4.6-16.7h5.3l4.6,16.8,4.9-16.8Z" style="fill:#333;"/><g style="clip-path:url(#clippath);"><path d="M3.9,74.75l.1,2.9c10.3-.4,19.4,1.9,27.9,4,10.1,2.5,19.3,4.8,29,2.4,4.5-1.1,9-3.3,13.2-5.2,3.5-1.6,6.7-3.1,9.2-3.8,2.6-.7,3.9-.4,5,1.2,1.8-1.2,3-3,2.3-5.4-.2-.7-.6-1.4-1.1-2s-1.2-1.1-2.1-1.4c-.8-4.7-4.3-4.5-9.1-4.2-5.2,.3-12.5,.7-19.1-7.8l-15.2-19.6-6.4-8.2-.4-.3-8.2-5.3L2.1,4.75-.2,3.25v2.9c.1,5.6,.1,13.3,8.3,21.5-.2,2.9,0,6.6,1.7,10.6,1.4,3.3,3.7,6.6,7.7,9.6,.8,5.3,1.8,11.9,13.3,18.2l9.7,5.4L3.9,66.45l-.4,2.9,44.1,6,5.7,3.1,1.4-2.6-22.5-12.4c-8.4-4.6-10.5-9.3-11.3-13.4,.1,.1,.3,.2,.4,.2l28,15.7,1.4-2.5-28-15.7c-5.7-3.2-8.7-7-10.2-10.7-1-2.4-1.4-4.7-1.5-6.8,1.8,1.5,4,3.1,6.5,4.6l24.1,14.9,1.5-2.5-24.1-14.9C4.8,23.55,3,14.95,2.7,8.55l24.6,15.8,8,5.1,6.2,8,15.2,19.6c7.5,9.7,15.6,9.2,21.5,8.9,3.9-.2,6.2-.2,6.2,3.6,1.5,.2,3.3,.8,3.1,2.6-3.5-1.5-8.9,1-15,3.9-4,1.9-8.4,3.9-12.7,5-9,2.3-17.8,.1-27.5-2.4-8.4-2-17.7-4.3-28.4-3.9" style="fill:#232222;"/></g></g></svg>